<?xml version="1.0" encoding="UTF-8" standalone="no"?>
<!-- Created with Inkscape (http://www.inkscape.org/) -->

<svg
   xmlns:dc="http://purl.org/dc/elements/1.1/"
   xmlns:cc="http://creativecommons.org/ns#"
   xmlns:rdf="http://www.w3.org/1999/02/22-rdf-syntax-ns#"
   xmlns:svg="http://www.w3.org/2000/svg"
   xmlns="http://www.w3.org/2000/svg"
   xmlns:sodipodi="http://sodipodi.sourceforge.net/DTD/sodipodi-0.dtd"
   xmlns:inkscape="http://www.inkscape.org/namespaces/inkscape"
   version="1.0"
   width="364.155"
   height="704.77502"
   id="svg2"
   inkscape:version="0.47 r22583"
   sodipodi:docname="CARTE_DRAPEAU_FRANCE.svg">
  <metadata
     id="metadata15">
    <rdf:RDF>
      <cc:Work
         rdf:about="">
        <dc:format>image/svg+xml</dc:format>
        <dc:type
           rdf:resource="http://purl.org/dc/dcmitype/StillImage" />
      </cc:Work>
    </rdf:RDF>
  </metadata>
  <sodipodi:namedview
     pagecolor="#00c8c8"
     bordercolor="#666666"
     borderopacity="1"
     objecttolerance="10"
     gridtolerance="10"
     guidetolerance="10"
     inkscape:pageopacity="0"
     inkscape:pageshadow="2"
     inkscape:window-width="1280"
     inkscape:window-height="1004"
     id="namedview13"
     showgrid="false"
     inkscape:zoom="0.94698218"
     inkscape:cx="141.11833"
     inkscape:cy="564.33006"
     inkscape:window-x="-8"
     inkscape:window-y="-8"
     inkscape:window-maximized="1"
     inkscape:current-layer="g2190" />
  <defs
     id="defs4">
    <inkscape:perspective
       sodipodi:type="inkscape:persp3d"
       inkscape:vp_x="0 : 352.44 : 1"
       inkscape:vp_y="0 : 1000 : 0"
       inkscape:vp_z="364.26001 : 352.44 : 1"
       inkscape:persp3d-origin="182.13 : 234.96 : 1"
       id="perspective17" />
  </defs>
  <g
     transform="translate(-130.20616,-283.65313)"
     id="layer1">
    <g
       id="g2181">
      <g
         transform="translate(0,1.0049676)"
         id="g5126">
        <g
           transform="matrix(2.5000001,0,0,2.4999963,-552.91496,-1058.5338)"
           style="fill:#00c8c8;fill-opacity:1;stroke:#323232;stroke-width:0.4000003;stroke-miterlimit:4;stroke-opacity:1;stroke-dasharray:none"
           id="g2190">
          <path
             d="m 312.91656,817.07073 c -5.42469,-0.97317 -6.94788,-2.7202 -5.7266,-6.56811 1.21264,-3.82068 12.7882,-8.87851 17.1508,-7.49386 2.29079,0.72706 3.04658,2.49291 3.04658,7.11803 0,7.85718 -2.55255,9.08205 -14.47078,6.94394 z"
             style="fill:#00c8c8;fill-opacity:1;stroke:#00c8c8;stroke-width:0.76000053;stroke-miterlimit:4;stroke-opacity:1;stroke-dasharray:none"
             id="path2192" />
          <path
             d="m 313.64372,783.42592 c -2.86661,-3.09313 -3.9365,-6.05565 -3.91949,-10.85308 0.0273,-7.69381 3.64561,-18.95152 8.10323,-25.21168 3.35695,-4.71442 4.02222,-8.78241 1.6736,-10.23392 -0.80016,-0.49453 -1.06447,-3.80939 -0.58739,-7.36637 0.64984,-4.84488 0.1441,-7.26651 -2.01602,-9.6534 -4.05283,-4.47836 -1.04376,-11.21244 5.01019,-11.21244 3.75217,0 4.14119,-0.50561 3.40208,-4.42163 -1.62298,-8.59889 -5.64322,-17.13169 -8.59745,-18.24774 -1.64558,-0.62167 -6.06701,-0.74181 -9.8254,-0.26697 -4.53551,0.57302 -6.83342,0.24917 -6.83342,-0.96308 0,-1.00452 -0.94336,-1.82641 -2.09638,-1.82641 -3.20145,0 -12.37518,-10.19358 -12.36838,-13.74339 0.003,-1.72654 1.45037,-5.50817 3.21573,-8.4036 1.76534,-2.89543 3.20971,-5.99978 3.20971,-6.89852 0,-0.89877 1.41296,-3.59455 3.1399,-5.99063 1.72693,-2.39609 3.5971,-6.27804 4.15591,-8.62656 0.81207,-3.4129 0.34317,-4.48358 -2.33597,-5.3339 -1.84359,-0.58513 -3.35197,-1.7448 -3.35197,-2.57702 0,-0.83223 -1.35124,-0.66929 -3.00274,0.36211 -3.8257,2.38917 -8.51692,0.71243 -7.24925,-2.59107 0.52187,-1.35997 0.10519,-2.47266 -0.92593,-2.47266 -1.03113,0 -1.42761,-0.72354 -0.88106,-1.60786 0.54654,-0.88433 -0.32203,-1.60787 -1.93015,-1.60787 -1.6081,0 -3.83951,-1.46622 -4.95867,-3.25827 -1.78247,-2.85421 -1.4815,-3.7452 2.42699,-7.18458 2.45401,-2.15947 5.91574,-3.94917 7.69275,-3.97711 1.77701,-0.028 4.13465,-1.49789 5.23919,-3.26654 1.10454,-1.76865 3.11625,-3.21573 4.47047,-3.21573 3.87129,0 14.69969,-6.03196 15.7522,-8.77475 0.60907,-1.58724 2.99622,-2.4803 6.62977,-2.4803 4.51803,0 5.67798,-0.62774 5.67798,-3.0728 0,-2.95382 8.38326,-11.39797 11.31578,-11.39797 0.78203,0 2.8398,-1.52199 4.57286,-3.38219 l 3.15098,-3.38219 2.64786,5.12037 c 1.76963,3.4221 3.45533,4.81051 5.08246,4.18613 1.33904,-0.51384 5.2923,-0.93425 8.78503,-0.93425 4.60143,0 6.62129,-0.77495 7.33393,-2.81377 1.52775,-4.37076 12.13182,-14.87274 15.01734,-14.87274 1.42243,0 4.13948,-1.44707 6.03791,-3.21573 1.89843,-1.76865 4.22099,-3.21572 5.16125,-3.21572 0.94025,0 2.58864,-1.92941 3.6631,-4.28755 2.86798,-6.29455 9.5538,-13.39896 12.60946,-13.39896 3.8158,0 6.50573,3.87524 8.11192,11.68641 3.63766,17.69065 3.83493,16.28639 -3.27693,23.32753 -5.17412,5.12266 -6.60402,7.73015 -6.60402,12.04267 0,12.79945 -27.46208,44.59164 -38.51825,44.59164 -3.13537,0 -5.37331,1.10683 -6.50195,3.21572 -0.94655,1.76865 -3.02202,3.21573 -4.61219,3.21573 -1.59014,0 -3.32734,0.43617 -3.86043,0.96925 -1.75286,1.75287 1.99891,8.94042 8.55389,16.38724 3.72111,4.22741 7.18003,10.24091 8.1841,14.22847 0.95651,3.7986 2.74402,7.74055 3.97225,8.7599 1.22825,1.01934 2.23316,2.78161 2.23316,3.91615 0,1.13454 2.6373,5.20629 5.86065,9.04835 8.48653,10.11544 10.72292,16.44768 10.98501,31.1035 0.1265,7.0746 1.50301,17.41793 3.05891,22.98517 1.68033,6.01243 2.40186,12.06669 1.77707,14.91125 -1.24138,5.652 -8.13807,14.35916 -11.37345,14.35916 -1.24788,0 -2.26887,0.66606 -2.26887,1.48011 0,0.81406 -2.16631,1.95591 -4.81401,2.53745 -2.64772,0.58153 -5.50172,2.26699 -6.34227,3.74545 -1.30722,2.29936 -2.02444,2.38408 -4.95949,0.58576 -3.03001,-1.8565 -3.53019,-1.72406 -4.27723,1.13265 -0.80976,3.09648 -1.02807,3.11924 -5.09923,0.53162 -2.33928,-1.48686 -4.66958,-3.28191 -5.1784,-3.98901 -0.50884,-0.70709 -2.75796,0.36151 -4.99805,2.37467 -8.55525,7.68854 -17.58341,10.05995 -21.89285,5.75051 -1.50067,-1.50067 -2.35821,-1.50067 -3.85887,0 -2.80303,2.80302 -4.19473,2.4267 -8.59846,-2.32501 z"
             style="fill:#00c8c8;fill-opacity:1;stroke:#00c8c8;stroke-width:0.76000053;stroke-miterlimit:4;stroke-opacity:1;stroke-dasharray:none"
             id="path2194" />
        </g>
        <g
           transform="translate(-48.814027,-94.092345)"
           id="g2186">
          <path
             d="m 312.91656,817.07073 c -5.42469,-0.97317 -6.94788,-2.7202 -5.7266,-6.56811 1.21264,-3.82068 12.7882,-8.87851 17.1508,-7.49386 2.29079,0.72706 3.04658,2.49291 3.04658,7.11803 0,7.85718 -2.55255,9.08205 -14.47078,6.94394 z"
             style="fill:#00c8c8;fill-opacity:1"
             id="path4871" />
          <path
             d="m 313.64372,783.42592 c -2.86661,-3.09313 -3.9365,-6.05565 -3.91949,-10.85308 0.0273,-7.69381 3.64561,-18.95152 8.10323,-25.21168 3.35695,-4.71442 4.02222,-8.78241 1.6736,-10.23392 -0.80016,-0.49453 -1.06447,-3.80939 -0.58739,-7.36637 0.64984,-4.84488 0.1441,-7.26651 -2.01602,-9.6534 -4.05283,-4.47836 -1.04376,-11.21244 5.01019,-11.21244 3.75217,0 4.14119,-0.50561 3.40208,-4.42163 -1.62298,-8.59889 -5.64322,-17.13169 -8.59745,-18.24774 -1.64558,-0.62167 -6.06701,-0.74181 -9.8254,-0.26697 -4.53551,0.57302 -6.83342,0.24917 -6.83342,-0.96308 0,-1.00452 -0.94336,-1.82641 -2.09638,-1.82641 -3.20145,0 -12.37518,-10.19358 -12.36838,-13.74339 0.003,-1.72654 1.45037,-5.50817 3.21573,-8.4036 1.76534,-2.89543 3.20971,-5.99978 3.20971,-6.89852 0,-0.89877 1.41296,-3.59455 3.1399,-5.99063 1.72693,-2.39609 3.5971,-6.27804 4.15591,-8.62656 0.81207,-3.4129 0.34317,-4.48358 -2.33597,-5.3339 -1.84359,-0.58513 -3.35197,-1.7448 -3.35197,-2.57702 0,-0.83223 -1.35124,-0.66929 -3.00274,0.36211 -3.8257,2.38917 -8.51692,0.71243 -7.24925,-2.59107 0.52187,-1.35997 0.10519,-2.47266 -0.92593,-2.47266 -1.03113,0 -1.42761,-0.72354 -0.88106,-1.60786 0.54654,-0.88433 -0.32203,-1.60787 -1.93015,-1.60787 -1.6081,0 -3.83951,-1.46622 -4.95867,-3.25827 -1.78247,-2.85421 -1.4815,-3.7452 2.42699,-7.18458 2.45401,-2.15947 5.91574,-3.94917 7.69275,-3.97711 1.77701,-0.028 4.13465,-1.49789 5.23919,-3.26654 1.10454,-1.76865 3.11625,-3.21573 4.47047,-3.21573 3.87129,0 14.69969,-6.03196 15.7522,-8.77475 0.60907,-1.58724 2.99622,-2.4803 6.62977,-2.4803 4.51803,0 5.67798,-0.62774 5.67798,-3.0728 0,-2.95382 8.38326,-11.39797 11.31578,-11.39797 0.78203,0 2.8398,-1.52199 4.57286,-3.38219 l 3.15098,-3.38219 2.64786,5.12037 c 1.76963,3.4221 3.45533,4.81051 5.08246,4.18613 1.33904,-0.51384 5.2923,-0.93425 8.78503,-0.93425 4.60143,0 6.62129,-0.77495 7.33393,-2.81377 1.52775,-4.37076 12.13182,-14.87274 15.01734,-14.87274 1.42243,0 4.13948,-1.44707 6.03791,-3.21573 1.89843,-1.76865 4.22099,-3.21572 5.16125,-3.21572 0.94025,0 2.58864,-1.92941 3.6631,-4.28755 2.86798,-6.29455 9.5538,-13.39896 12.60946,-13.39896 3.8158,0 6.50573,3.87524 8.11192,11.68641 3.63766,17.69065 3.83493,16.28639 -3.27693,23.32753 -5.17412,5.12266 -6.60402,7.73015 -6.60402,12.04267 0,12.79945 -27.46208,44.59164 -38.51825,44.59164 -3.13537,0 -5.37331,1.10683 -6.50195,3.21572 -0.94655,1.76865 -3.02202,3.21573 -4.61219,3.21573 -1.59014,0 -3.32734,0.43617 -3.86043,0.96925 -1.75286,1.75287 1.99891,8.94042 8.55389,16.38724 3.72111,4.22741 7.18003,10.24091 8.1841,14.22847 0.95651,3.7986 2.74402,7.74055 3.97225,8.7599 1.22825,1.01934 2.23316,2.78161 2.23316,3.91615 0,1.13454 2.6373,5.20629 5.86065,9.04835 8.48653,10.11544 10.72292,16.44768 10.98501,31.1035 0.1265,7.0746 1.50301,17.41793 3.05891,22.98517 1.68033,6.01243 2.40186,12.06669 1.77707,14.91125 -1.24138,5.652 -8.13807,14.35916 -11.37345,14.35916 -1.24788,0 -2.26887,0.66606 -2.26887,1.48011 0,0.81406 -2.16631,1.95591 -4.81401,2.53745 -2.64772,0.58153 -5.50172,2.26699 -6.34227,3.74545 -1.30722,2.29936 -2.02444,2.38408 -4.95949,0.58576 -3.03001,-1.8565 -3.53019,-1.72406 -4.27723,1.13265 -0.80976,3.09648 -1.02807,3.11924 -5.09923,0.53162 -2.33928,-1.48686 -4.66958,-3.28191 -5.1784,-3.98901 -0.50884,-0.70709 -2.75796,0.36151 -4.99805,2.37467 -8.55525,7.68854 -17.58341,10.05995 -21.89285,5.75051 -1.50067,-1.50067 -2.35821,-1.50067 -3.85887,0 -2.80303,2.80302 -4.19473,2.4267 -8.59846,-2.32501 z"
             style="fill:#00c8c8;fill-opacity:1"
             id="path4867" />
        </g>
      </g>
    </g>
  </g>
</svg>
